<svg xmlns="http://www.w3.org/2000/svg" viewBox="0 0 1000 1000" width="1000" height="1000">
  <defs>
    <pattern id="grass" width="40" height="40" patternUnits="userSpaceOnUse">
      <rect width="40" height="40" fill="#b8ddb8"/>
      <circle cx="10" cy="10" r="3" fill="#9ecf9e" opacity="0.5"/>
      <circle cx="30" cy="25" r="2" fill="#9ecf9e" opacity="0.5"/>
    </pattern>
  </defs>
  <!-- Base terrain -->
  <rect width="1000" height="1000" fill="#ebe8df"/>
  <!-- Parks / green areas -->
  <ellipse cx="200" cy="280" rx="140" ry="100" fill="url(#grass)"/>
  <ellipse cx="780" cy="220" rx="120" ry="90" fill="url(#grass)"/>
  <path d="M120 620 Q200 560 280 600 Q350 640 320 720 Q250 780 150 740 Q80 700 120 620" fill="url(#grass)"/>
  <ellipse cx="650" cy="780" rx="160" ry="110" fill="url(#grass)"/>
  <rect x="420" y="680" width="180" height="120" rx="20" fill="url(#grass)"/>
  <!-- Water -->
  <path d="M0 480 Q120 440 200 470 Q280 500 350 460 Q420 420 500 450 L500 520 Q420 540 350 510 Q280 480 200 510 Q100 550 0 520 Z" fill="#aadaff" opacity="0.7"/>
  <!-- Major roads -->
  <path d="M0 350 L1000 350" stroke="#ffffff" stroke-width="28" fill="none"/>
  <path d="M0 350 L1000 350" stroke="#d4d0c8" stroke-width="22" fill="none"/>
  <path d="M0 550 L1000 550" stroke="#ffffff" stroke-width="24" fill="none"/>
  <path d="M0 550 L1000 550" stroke="#d4d0c8" stroke-width="18" fill="none"/>
  <path d="M250 0 L250 1000" stroke="#ffffff" stroke-width="22" fill="none"/>
  <path d="M250 0 L250 1000" stroke="#d4d0c8" stroke-width="16" fill="none"/>
  <path d="M500 0 L500 1000" stroke="#ffffff" stroke-width="26" fill="none"/>
  <path d="M500 0 L500 1000" stroke="#d4d0c8" stroke-width="20" fill="none"/>
  <path d="M750 0 L750 1000" stroke="#ffffff" stroke-width="22" fill="none"/>
  <path d="M750 0 L750 1000" stroke="#d4d0c8" stroke-width="16" fill="none"/>
  <!-- Secondary streets -->
  <path d="M0 180 L1000 180" stroke="#e8e4dc" stroke-width="10" fill="none"/>
  <path d="M0 720 L1000 720" stroke="#e8e4dc" stroke-width="10" fill="none"/>
  <path d="M120 0 L120 1000" stroke="#e8e4dc" stroke-width="8" fill="none"/>
  <path d="M380 0 L380 1000" stroke="#e8e4dc" stroke-width="8" fill="none"/>
  <path d="M620 0 L620 1000" stroke="#e8e4dc" stroke-width="8" fill="none"/>
  <path d="M880 0 L880 1000" stroke="#e8e4dc" stroke-width="8" fill="none"/>
  <!-- Diagonal avenue -->
  <path d="M0 800 L400 400 L700 600 L1000 200" stroke="#ffffff" stroke-width="14" fill="none"/>
  <path d="M0 800 L400 400 L700 600 L1000 200" stroke="#d4d0c8" stroke-width="10" fill="none"/>
  <!-- Buildings blocks -->
  <rect x="270" y="190" width="90" height="70" rx="4" fill="#ddd9d0" opacity="0.8"/>
  <rect x="530" y="190" width="110" height="80" rx="4" fill="#ddd9d0" opacity="0.8"/>
  <rect x="770" y="380" width="80" height="90" rx="4" fill="#ddd9d0" opacity="0.8"/>
  <rect x="130" y="400" width="100" height="70" rx="4" fill="#ddd9d0" opacity="0.8"/>
  <rect x="530" y="580" width="120" height="60" rx="4" fill="#ddd9d0" opacity="0.8"/>
  <rect x="280" y="580" width="80" height="80" rx="4" fill="#ddd9d0" opacity="0.8"/>
  <rect x="770" y="600" width="90" height="70" rx="4" fill="#ddd9d0" opacity="0.8"/>
</svg>
