<svg xmlns="http://www.w3.org/2000/svg" viewBox="0 0 400 280" preserveAspectRatio="none">
  <defs>
    <linearGradient id="sky" x1="0" y1="0" x2="0" y2="1">
      <stop offset="0%" stop-color="#1a4db8"/>
      <stop offset="100%" stop-color="#003399"/>
    </linearGradient>
  </defs>
  <rect width="400" height="55" fill="url(#sky)"/>

  <!-- layer 1 — far: faded, muted blue (reference haze) -->
  <g fill="#2a5585" opacity="0.55">
    <rect x="0" y="155" width="95" height="125"/>
    <rect x="102" y="95" width="22" height="185"/>
    <rect x="128" y="165" width="72" height="115"/>
    <rect x="205" y="110" width="38" height="170"/>
    <rect x="248" y="175" width="88" height="105"/>
    <rect x="342" y="88" width="26" height="192"/>
    <rect x="372" y="148" width="28" height="132"/>
  </g>

  <!-- layer 2 — mid distance -->
  <g fill="#1e426e" opacity="0.72">
    <rect x="0" y="125" width="42" height="155"/>
    <rect x="46" y="178" width="78" height="102"/>
    <rect x="128" y="108" width="32" height="172"/>
    <rect x="164" y="138" width="58" height="142"/>
    <rect x="226" y="92" width="24" height="188"/>
    <rect x="254" y="168" width="70" height="112"/>
    <rect x="328" y="118" width="72" height="162"/>
  </g>

  <!-- layer 3 — near -->
  <g fill="#153560" opacity="0.85">
    <rect x="0" y="148" width="54" height="132"/>
    <rect x="54" y="128" width="48" height="152"/>
    <rect x="102" y="140" width="60" height="140"/>
    <rect x="162" y="118" width="48" height="162"/>
    <rect x="210" y="136" width="52" height="144"/>
    <rect x="262" y="124" width="54" height="156"/>
    <rect x="316" y="142" width="84" height="138"/>
  </g>

  <!-- layer 4 — front: just above background navy (#003399) -->
  <g fill="#0f2a58">
    <rect x="0" y="168" width="50" height="112"/>
    <rect x="50" y="148" width="46" height="132"/>
    <rect x="96" y="158" width="58" height="122"/>
    <rect x="154" y="132" width="52" height="148"/>
    <rect x="206" y="152" width="48" height="128"/>
    <rect x="254" y="138" width="44" height="142"/>
    <rect x="298" y="160" width="56" height="120"/>
    <rect x="354" y="144" width="46" height="136"/>
  </g>

  <!-- distant windows — dim -->
  <g fill="#3d6288" opacity="0.18">
    <rect x="22" y="175" width="9" height="6"/><rect x="40" y="190" width="9" height="6"/>
    <rect x="108" y="120" width="9" height="6"/><rect x="108" y="140" width="9" height="6"/>
    <rect x="148" y="185" width="9" height="6"/><rect x="218" y="140" width="9" height="6"/>
    <rect x="268" y="195" width="9" height="6"/><rect x="350" y="115" width="9" height="6"/>
    <rect x="54" y="195" width="9" height="6"/><rect x="238" y="115" width="9" height="6"/>
  </g>

  <!-- front windows — pale muted blue, low contrast -->
  <g fill="#3a5f85">
    <rect x="10" y="188" width="9" height="6" opacity="0.22"/><rect x="24" y="188" width="9" height="6" opacity="0.14"/>
    <rect x="10" y="200" width="9" height="6" opacity="0.26"/><rect x="24" y="202" width="9" height="6" opacity="0.18"/>
    <rect x="62" y="168" width="9" height="6" opacity="0.2"/><rect x="76" y="170" width="9" height="6" opacity="0.28"/>
    <rect x="62" y="182" width="9" height="6" opacity="0.16"/><rect x="76" y="184" width="9" height="6" opacity="0.24"/>
    <rect x="110" y="178" width="9" height="6" opacity="0.22"/><rect x="124" y="180" width="9" height="6" opacity="0.15"/>
    <rect x="138" y="182" width="9" height="6" opacity="0.2"/><rect x="110" y="194" width="9" height="6" opacity="0.24"/>
    <rect x="168" y="152" width="9" height="6" opacity="0.24"/><rect x="182" y="154" width="9" height="6" opacity="0.17"/>
    <rect x="168" y="166" width="9" height="6" opacity="0.2"/><rect x="182" y="168" width="9" height="6" opacity="0.26"/>
    <rect x="168" y="180" width="9" height="6" opacity="0.16"/><rect x="182" y="182" width="9" height="6" opacity="0.22"/>
    <rect x="218" y="172" width="9" height="6" opacity="0.2"/><rect x="232" y="174" width="9" height="6" opacity="0.14"/>
    <rect x="266" y="158" width="9" height="6" opacity="0.24"/><rect x="280" y="160" width="9" height="6" opacity="0.17"/>
    <rect x="266" y="172" width="9" height="6" opacity="0.19"/><rect x="280" y="174" width="9" height="6" opacity="0.26"/>
    <rect x="312" y="180" width="9" height="6" opacity="0.22"/><rect x="326" y="182" width="9" height="6" opacity="0.15"/>
    <rect x="366" y="164" width="9" height="6" opacity="0.2"/><rect x="380" y="166" width="9" height="6" opacity="0.26"/>
    <rect x="366" y="178" width="9" height="6" opacity="0.16"/><rect x="380" y="180" width="9" height="6" opacity="0.22"/>
  </g>
</svg>
